<?xml version="1.0" encoding="utf-8"?>
<!-- Generator: Adobe Illustrator 16.0.0, SVG Export Plug-In . SVG Version: 6.00 Build 0)  -->
<!DOCTYPE svg PUBLIC "-//W3C//DTD SVG 1.1//EN" "http://www.w3.org/Graphics/SVG/1.1/DTD/svg11.dtd">
<svg version="1.1" id="Layer_1" xmlns="http://www.w3.org/2000/svg" xmlns:xlink="http://www.w3.org/1999/xlink" x="0px" y="0px"
	 width="612px" height="159.146px" viewBox="0 0 612 159.146" enable-background="new 0 0 612 159.146" xml:space="preserve">
<path fill-rule="evenodd" clip-rule="evenodd" fill="#FC2726" d="M-511.753,238.103c-16.168,0.379-32.319-0.202-48.463-0.967
	c-4.727-0.224-9.479-0.675-13.975-2.284c-7.87-2.818-11.241-9.193-12.581-16.853c-2.53-14.462-2.658-29.077-2.141-43.69
	c0.313-8.833,0.733-17.676,3.034-26.31c1.984-7.446,8.54-13.368,16.196-14.284c12.973-1.552,26.019-1.687,39.055-2.064
	c18.178-0.526,36.35-0.166,54.505,0.586c6.902,0.286,13.876,0.22,20.721,1.488c7.85,1.454,13.002,5.981,15.537,13.596
	c2.638,7.923,2.818,16.19,3.132,24.352c0.527,13.682,0.434,27.389-1,41.045c-0.403,3.833-1.243,7.565-2.588,11.163
	c-3.207,8.574-9.919,12.244-18.599,12.803C-476.511,237.815-494.118,238.541-511.753,238.103z"/>
<path fill-rule="evenodd" clip-rule="evenodd" fill="#121214" d="M-187.929,224.15c-2.038,6.187-2.038,6.187-8.263,6.195
	c-5.804,0.007-5.799,0.007-5.798-5.826c0.005-28.579,0.044-57.158-0.054-85.736c-0.009-2.573,0.721-3.261,3.174-3.082
	c2.905,0.212,5.847,0.175,8.759,0.002c2.02-0.12,2.634,0.434,2.609,2.544c-0.116,9.951-0.044,19.904-0.039,29.856
	c0,0.53,0,1.061,0,2.207c1.113-1.301,1.846-2.244,2.668-3.101c3.634-3.788,7.981-5.625,13.289-4.751
	c6.604,1.086,9.308,5.908,10.167,11.677c2.149,14.422,2.186,28.922,0.075,43.365c-0.667,4.562-2.363,8.882-6.316,11.73
	c-5.386,3.88-14.081,2.449-18.542-2.897C-186.714,225.716-187.2,225.074-187.929,224.15z"/>
<path fill-rule="evenodd" clip-rule="evenodd" fill="#121214" d="M-301.264,221.99c-2.862,4.727-6.009,7.847-10.859,9.107
	c-7.798,2.027-14.469-1.932-15.982-9.788c-0.555-2.878-0.804-5.781-0.803-8.712c0.01-15.524,0.048-31.048-0.046-46.571
	c-0.013-2.078,0.531-2.646,2.583-2.536c3.461,0.185,6.942,0.161,10.405,0.004c1.875-0.085,2.227,0.586,2.22,2.312
	c-0.065,15.34-0.045,30.682-0.033,46.023c0.001,1.458,0.027,2.927,0.191,4.374c0.391,3.454,1.542,4.525,4.572,4.431
	c2.948-0.093,5.71-2.416,5.831-5.033c0.094-2.005,0.018-4.018,0.018-6.025c0-14.52,0.05-29.039-0.053-43.558
	c-0.015-2.097,0.538-2.63,2.576-2.527c3.552,0.18,7.121,0.109,10.681,0.025c1.378-0.033,1.897,0.292,1.895,1.793
	c-0.056,21.003-0.062,42.005-0.033,63.008c0.002,1.51-0.397,2.139-1.998,2.07c-2.552-0.108-5.116-0.119-7.668,0.001
	c-1.574,0.074-2.351-0.389-2.512-2.029C-300.465,226.468-300.851,224.595-301.264,221.99z"/>
<path fill-rule="evenodd" clip-rule="evenodd" fill="#121213" d="M-224.226,222.024c-2.713,4.512-5.698,7.581-10.32,8.901
	c-8.396,2.397-15.322-1.818-16.695-10.402c-0.464-2.895-0.531-5.817-0.531-8.742c0.001-15.168,0.06-30.337-0.057-45.504
	c-0.018-2.341,0.653-2.918,2.877-2.785c3.278,0.195,6.583,0.181,9.862,0.003c1.991-0.108,2.36,0.586,2.351,2.438
	c-0.075,14.985-0.051,29.971-0.025,44.957c0.004,1.913,0.026,3.851,0.316,5.733c0.51,3.31,1.613,4.158,4.656,3.992
	c2.886-0.157,5.545-2.408,5.61-4.933c0.088-3.379,0.025-6.761,0.025-10.142c0.001-13.25,0.03-26.5-0.032-39.749
	c-0.009-1.695,0.29-2.392,2.194-2.303c3.646,0.171,7.308,0.093,10.962,0.026c1.282-0.024,1.948,0.104,1.944,1.705
	c-0.055,21.108-0.048,42.216-0.011,63.324c0.003,1.458-0.489,1.893-1.905,1.841c-2.646-0.099-5.302-0.11-7.947-0.004
	c-1.375,0.055-1.988-0.409-2.168-1.757C-223.382,226.66-223.768,224.712-224.226,222.024z"/>
<path fill-rule="evenodd" clip-rule="evenodd" fill="#121214" d="M-336.717,197.076c0.073,7.488,0.231,14.978-2.1,22.248
	c-2.374,7.405-7.7,11.665-15.482,12.09c-2.546,0.139-5.115,0.257-7.657-0.169c-10.685-1.789-14.07-7.722-15.35-16.838
	c-1.593-11.343-1.549-22.8-0.03-34.153c1.05-7.859,4.164-14.613,12.746-17.022c4.854-1.362,9.752-1.399,14.599-0.049
	c7.732,2.154,10.683,8.176,12.199,15.338C-336.494,184.657-336.681,190.869-336.717,197.076z"/>
<path fill-rule="evenodd" clip-rule="evenodd" fill="#121214" d="M-399.003,184.089c1.701-8.091,3.371-16.171,5.105-24.238
	c1.38-6.417,2.912-12.802,4.212-19.235c0.321-1.588,1.054-1.797,2.399-1.772c3.469,0.066,6.943,0.108,10.41-0.011
	c1.95-0.067,2.516,0.287,1.904,2.411c-3.884,13.492-7.624,27.025-11.416,40.543c-1.625,5.793-3.291,11.576-4.865,17.383
	c-0.305,1.125-0.364,2.343-0.369,3.519c-0.035,8.402-0.072,16.805,0.003,25.207c0.017,1.845-0.435,2.583-2.425,2.498
	c-3.555-0.152-7.123-0.08-10.683,0c-1.421,0.031-1.917-0.457-1.905-1.887c0.067-7.762-0.015-15.525,0.118-23.286
	c0.049-2.863-0.287-5.591-1.06-8.346c-5.241-18.693-10.39-37.412-15.63-56.104c-0.509-1.815,0.198-1.974,1.687-1.941
	c3.469,0.076,6.949,0.176,10.408-0.027c2.07-0.121,2.655,0.801,2.997,2.556c2.688,13.78,6.083,27.416,8.477,41.256
	C-399.544,183.142-399.602,183.733-399.003,184.089z"/>
<path fill-rule="evenodd" clip-rule="evenodd" fill="#121214" d="M-153.334,197.063c-0.108-6.669-0.188-13.345,1.368-19.89
	c2.382-10.022,7.791-14.465,18.097-14.93c3.315-0.149,6.59,0.354,9.709,1.384c5.06,1.67,7.667,5.614,8.981,10.55
	c2.027,7.608,1.616,15.399,1.666,23.152c0.03,4.767,0.006,4.764-4.696,4.762c-6.031-0.003-12.062,0.056-18.092-0.035
	c-1.732-0.025-2.431,0.364-2.369,2.263c0.13,4.017-0.006,8.057,0.637,12.027c0.684,4.224,4.268,6.049,7.849,4.12
	c2.087-1.123,2.265-3.343,2.8-5.371c0.453-1.719-0.672-4.151,0.998-5.047c1.299-0.696,3.366,0.05,5.094,0.138
	c1.733,0.088,3.471,0.253,5.201,0.201c1.717-0.05,2.079,0.744,2.133,2.302c0.386,11.266-6.465,18.562-17.739,18.745
	c-2.002,0.032-4.005,0.112-6.008-0.264c-9.053-1.698-12.98-6.456-14.858-17.434C-153.507,208.224-153.437,202.638-153.334,197.063z"
	/>
<path fill-rule="evenodd" clip-rule="evenodd" fill="#121214" d="M-262.201,190.923c0,12.328-0.038,24.656,0.041,36.983
	c0.012,1.874-0.436,2.574-2.406,2.48c-3.188-0.153-6.399-0.18-9.583,0.021c-2.327,0.146-2.889-0.671-2.879-2.914
	c0.091-19.998,0.066-39.997,0.076-59.996c0.002-4.749-0.066-9.499,0.042-14.245c0.038-1.7-0.512-2.21-2.176-2.162
	c-3.649,0.105-7.306-0.029-10.956,0.064c-1.429,0.037-1.896-0.382-1.841-1.832c0.105-2.827,0.066-5.662,0.005-8.491
	c-0.028-1.286,0.177-2,1.75-1.995c13.698,0.049,27.396,0.038,41.093,0.004c1.333-0.004,1.742,0.506,1.715,1.778
	c-0.062,2.921-0.107,5.848,0.014,8.765c0.066,1.584-0.667,1.774-1.955,1.754c-3.561-0.055-7.126,0.071-10.683-0.058
	c-1.809-0.065-2.3,0.504-2.288,2.311c0.079,12.51,0.042,25.021,0.042,37.531C-262.194,190.923-262.198,190.923-262.201,190.923z"/>
<path fill-rule="evenodd" clip-rule="evenodd" fill="#FFFFFF" d="M-488.022,185.124c-3.682,2.744-7.614,4.634-11.352,6.82
	c-8.544,5-17.171,9.861-25.758,14.79c-0.778,0.447-1.602,1.278-2.428,0.918c-0.995-0.434-0.514-1.634-0.515-2.49
	c-0.025-13.338-0.021-26.677-0.009-40.016c0.003-3.212,0.089-3.286,2.881-1.683c11.824,6.785,23.629,13.605,35.435,20.422
	C-489.231,184.196-488.75,184.604-488.022,185.124z"/>
<path fill-rule="evenodd" clip-rule="evenodd" fill="#FFFFFF" d="M-187.545,197.796c0-5.661,0.03-11.323-0.018-16.985
	c-0.015-1.722,0.427-3.238,1.428-4.611c1.529-2.098,3.41-3.695,6.184-3.145c2.661,0.529,3.445,2.833,3.879,5.095
	c0.705,3.676,1.042,7.417,0.982,11.161c-0.118,7.479,0.31,14.971-0.486,22.44c-0.186,1.743-0.512,3.433-1.128,5.055
	c-1.151,3.025-3.189,4.21-6.168,3.682c-2.956-0.524-4.659-2.6-4.662-5.706c-0.006-5.662-0.002-11.324-0.002-16.985
	C-187.54,197.796-187.542,197.796-187.545,197.796z"/>
<path fill-rule="evenodd" clip-rule="evenodd" fill="#FFFFFF" d="M-362.971,196.711c0.124-5.92-0.477-11.861,0.49-17.757
	c0.222-1.355,0.492-2.699,1.18-3.896c1.805-3.136,5.985-3.157,7.751-0.005c0.804,1.436,1.248,3.028,1.342,4.7
	c0.659,11.574,0.723,23.148-0.044,34.718c-0.077,1.155-0.523,2.296-0.87,3.421c-0.667,2.166-2.223,3.433-4.432,3.326
	c-2.286-0.11-3.817-1.537-4.425-3.792c-0.669-2.479-0.974-5.014-0.986-7.577C-362.985,205.469-362.971,201.09-362.971,196.711z"/>
<path fill-rule="evenodd" clip-rule="evenodd" fill="#FFFFFF" d="M-138.677,185.898c0.218-3.299,0.247-5.864,0.588-8.387
	c0.471-3.492,2.175-5.089,5.004-5.06c2.691,0.028,4.015,1.478,4.723,5.007c0.925,4.605,0.58,9.263,0.683,13.904
	c0.023,1.057-0.225,1.736-1.509,1.707c-2.643-0.059-5.288-0.046-7.933-0.007c-1.172,0.017-1.615-0.441-1.575-1.627
	C-138.626,189.343-138.677,187.244-138.677,185.898z"/>
<path fill-rule="evenodd" clip-rule="evenodd" fill="#121214" d="M373.67,108.078c-3.552,5.863-7.453,9.733-13.472,11.298
	c-9.673,2.514-17.948-2.396-19.826-12.143c-0.688-3.57-0.996-7.172-0.995-10.807c0.011-19.258,0.058-38.516-0.058-57.772
	c-0.016-2.579,0.658-3.282,3.204-3.146c4.294,0.229,8.612,0.2,12.908,0.005c2.325-0.106,2.762,0.727,2.754,2.868
	c-0.082,19.031-0.057,38.062-0.041,57.092c0.001,1.809,0.033,3.631,0.236,5.426c0.484,4.285,1.913,5.614,5.672,5.496
	c3.657-0.115,7.085-2.997,7.234-6.244c0.116-2.487,0.021-4.984,0.021-7.474c0-18.011,0.062-36.023-0.065-54.034
	c-0.019-2.602,0.667-3.263,3.196-3.135c4.405,0.224,8.833,0.135,13.249,0.031c1.709-0.041,2.354,0.362,2.35,2.224
	c-0.069,26.055-0.077,52.107-0.041,78.162c0.004,1.874-0.492,2.653-2.479,2.568c-3.165-0.135-6.347-0.147-9.512,0.001
	c-1.953,0.092-2.917-0.482-3.116-2.518C374.66,113.632,374.183,111.309,373.67,108.078z"/>
<path fill-rule="evenodd" clip-rule="evenodd" fill="#121213" d="M469.236,108.12c-3.365,5.597-7.068,9.405-12.803,11.042
	c-10.415,2.975-19.008-2.255-20.71-12.904c-0.576-3.59-0.659-7.216-0.659-10.844c0.001-18.816,0.074-37.634-0.07-56.449
	c-0.021-2.904,0.811-3.621,3.568-3.456c4.067,0.242,8.166,0.225,12.235,0.004c2.47-0.134,2.927,0.727,2.916,3.024
	c-0.094,18.59-0.063,37.18-0.033,55.771c0.007,2.374,0.034,4.777,0.394,7.112c0.632,4.105,2.001,5.158,5.775,4.952
	c3.579-0.194,6.88-2.987,6.96-6.119c0.11-4.191,0.032-8.387,0.032-12.581c0.001-16.437,0.037-32.874-0.04-49.309
	c-0.011-2.103,0.359-2.967,2.722-2.856c4.523,0.212,9.065,0.115,13.6,0.032c1.59-0.03,2.416,0.129,2.411,2.114
	c-0.068,26.186-0.06,52.371-0.014,78.555c0.004,1.809-0.607,2.348-2.363,2.283c-3.283-0.122-6.577-0.137-9.858-0.004
	c-1.706,0.068-2.467-0.508-2.689-2.18C470.284,113.871,469.805,111.454,469.236,108.12z"/>
<path fill-rule="evenodd" clip-rule="evenodd" fill="#121214" d="M252.423,61.061c2.11-10.037,4.181-20.06,6.333-30.066
	c1.711-7.96,3.611-15.882,5.224-23.862c0.399-1.97,1.309-2.229,2.977-2.198c4.303,0.082,8.614,0.134,12.914-0.014
	c2.419-0.083,3.121,0.357,2.362,2.991c-4.818,16.737-9.457,33.525-14.161,50.295c-2.017,7.187-4.083,14.359-6.035,21.565
	c-0.378,1.396-0.451,2.905-0.458,4.364c-0.043,10.423-0.089,20.846,0.005,31.271c0.021,2.288-0.539,3.204-3.008,3.099
	c-4.411-0.188-8.836-0.1-13.253,0c-1.763,0.038-2.378-0.567-2.362-2.341c0.083-9.628-0.019-19.26,0.145-28.887
	c0.061-3.552-0.356-6.935-1.313-10.353c-6.502-23.188-12.89-46.41-19.39-69.597c-0.632-2.253,0.244-2.45,2.091-2.409
	c4.303,0.094,8.621,0.219,12.913-0.034c2.568-0.15,3.292,0.994,3.718,3.17c3.334,17.095,7.545,34.009,10.515,51.179
	C251.751,59.886,251.68,60.618,252.423,61.061z"/>
<path fill-rule="evenodd" clip-rule="evenodd" fill="#121214" d="M422.129,69.539c0,15.292-0.048,30.586,0.051,45.877
	c0.014,2.325-0.54,3.194-2.985,3.078c-3.954-0.19-7.938-0.223-11.887,0.025c-2.888,0.182-3.584-0.832-3.572-3.614
	c0.113-24.809,0.082-49.618,0.095-74.426c0.002-5.89-0.082-11.784,0.052-17.671c0.047-2.109-0.636-2.741-2.698-2.682
	c-4.528,0.131-9.063-0.036-13.592,0.08c-1.773,0.046-2.352-0.475-2.285-2.272c0.133-3.507,0.084-7.024,0.008-10.533
	c-0.036-1.596,0.219-2.481,2.17-2.475c16.994,0.061,33.984,0.047,50.978,0.004c1.652-0.004,2.161,0.628,2.127,2.206
	c-0.077,3.623-0.134,7.254,0.017,10.873c0.083,1.966-0.827,2.202-2.425,2.177c-4.418-0.068-8.84,0.088-13.253-0.072
	c-2.243-0.081-2.853,0.626-2.838,2.867c0.099,15.52,0.052,31.039,0.052,46.559C422.138,69.539,422.132,69.539,422.129,69.539z"/>
<path fill-rule="evenodd" clip-rule="evenodd" fill="#FC2726" d="M212.935,61.445c-0.427-11.133-0.674-22.413-4.272-33.22
	c-3.458-10.388-10.486-16.564-21.194-18.548c-9.34-1.729-18.852-1.639-28.269-2.028c-24.765-1.025-49.555-1.519-74.352-0.8
	c-17.785,0.515-35.581,0.7-53.278,2.815c-10.444,1.251-19.386,9.328-22.093,19.486C6.338,40.929,5.765,52.993,5.338,65.043
	c-0.705,19.934-0.531,39.87,2.921,59.599c1.829,10.449,6.425,19.146,17.163,22.99c6.134,2.195,12.616,2.812,19.064,3.117
	c22.022,1.042,44.055,1.835,66.112,1.319c24.057,0.598,48.075-0.393,72.071-1.937c11.842-0.763,20.998-5.768,25.372-17.466
	c1.836-4.907,2.982-9.998,3.53-15.228C213.527,98.809,213.654,80.109,212.935,61.445z M127.484,89.1
	c-11.655,6.821-23.423,13.451-35.138,20.175c-1.062,0.611-2.185,1.745-3.312,1.253c-1.356-0.592-0.701-2.229-0.702-3.397
	c-0.036-18.196-0.028-36.392-0.013-54.588c0.003-4.382,0.121-4.482,3.93-2.296c16.129,9.257,32.232,18.561,48.338,27.858
	c0.733,0.425,1.389,0.98,2.381,1.69C137.947,83.54,132.582,86.117,127.484,89.1z"/>
<path fill-rule="evenodd" clip-rule="evenodd" fill="#121214" d="M547.152,48.713c-1.066-7.157-4.418-13.138-12.611-14.486
	c-6.585-1.084-11.978,1.196-16.486,5.895c-1.02,1.063-1.928,2.232-3.31,3.847c0-1.421,0-2.079,0-2.739
	c-0.005-12.345-0.096-24.693,0.049-37.037c0.03-2.617-0.731-3.304-3.237-3.154c-3.612,0.214-7.262,0.26-10.865-0.004
	c-3.043-0.223-3.948,0.633-3.938,3.824c0.122,35.452,0.073,70.904,0.067,106.357c-0.001,7.235-0.008,7.235,7.191,7.228
	c7.723-0.011,7.723-0.011,10.25-7.685c0.906,1.146,1.507,1.942,2.146,2.708c5.534,6.632,16.32,8.408,23.002,3.594
	c4.903-3.534,7.007-8.891,7.835-14.552C549.863,84.591,549.819,66.604,547.152,48.713z M529.587,95.375
	c-0.229,2.163-0.635,4.258-1.399,6.271c-1.428,3.753-3.956,5.222-7.651,4.568c-3.667-0.651-5.78-3.227-5.784-7.08
	c-0.007-7.023-0.002-14.048-0.002-21.07c-0.003,0-0.006,0-0.01,0c0-7.022,0.036-14.047-0.022-21.071
	c-0.019-2.136,0.529-4.016,1.771-5.721c1.897-2.603,4.23-4.584,7.671-3.901c3.301,0.656,4.273,3.515,4.812,6.321
	c0.874,4.559,1.292,9.201,1.219,13.845C530.044,76.816,530.573,86.109,529.587,95.375z"/>
<path fill-rule="evenodd" clip-rule="evenodd" fill="#121214" d="M329.689,77.171c0.045-7.7,0.277-15.407-1.333-23.019
	c-1.882-8.884-5.542-16.354-15.134-19.027c-6.014-1.674-12.088-1.628-18.11,0.061c-10.646,2.99-14.509,11.368-15.812,21.117
	c-1.884,14.084-1.938,28.296,0.038,42.367c1.587,11.309,5.787,18.668,19.042,20.888c3.153,0.529,6.34,0.382,9.499,0.21
	c9.653-0.526,16.26-5.812,19.206-14.998C329.976,95.751,329.78,86.461,329.689,77.171z M310.419,98.75
	c-0.095,1.432-0.649,2.848-1.081,4.244c-0.827,2.687-2.756,4.258-5.496,4.126c-2.835-0.138-4.735-1.907-5.49-4.705
	c-0.83-3.074-1.208-6.219-1.223-9.399c-0.025-5.434-0.008-10.866-0.008-16.297c0.153-7.344-0.591-14.714,0.608-22.029
	c0.276-1.682,0.61-3.349,1.464-4.833c2.24-3.89,7.425-3.916,9.616-0.005c0.998,1.78,1.547,3.756,1.665,5.83
	C311.292,70.04,311.37,84.398,310.419,98.75z"/>
<path fill-rule="evenodd" clip-rule="evenodd" fill="#121214" d="M603.379,93.684c-2.147,0.064-4.303-0.141-6.452-0.249
	c-2.143-0.11-4.707-1.035-6.32-0.172c-2.072,1.112-0.675,4.129-1.237,6.261c-0.664,2.516-0.886,5.27-3.474,6.663
	c-4.442,2.394-8.889,0.13-9.736-5.111c-0.798-4.925-0.628-9.937-0.789-14.919c-0.076-2.355,0.789-2.839,2.938-2.808
	c7.48,0.113,14.963,0.041,22.444,0.043c5.832,0.002,5.862,0.007,5.825-5.906c-0.062-9.618,0.449-19.282-2.067-28.72
	c-1.628-6.124-4.864-11.016-11.141-13.087c-3.869-1.279-7.932-1.902-12.045-1.717c-12.783,0.576-19.493,6.087-22.449,18.52
	c-1.929,8.119-1.831,16.4-1.696,24.673c-0.127,6.915-0.214,13.845,0.955,20.685c2.329,13.618,7.202,19.52,18.432,21.626
	c2.484,0.467,4.969,0.368,7.453,0.327c13.986-0.226,22.485-9.278,22.006-23.253C605.958,94.608,605.508,93.623,603.379,93.684z
	 M575.36,63.305c0.271-4.092,0.307-7.275,0.73-10.404c0.584-4.332,2.696-6.313,6.208-6.277c3.337,0.035,4.979,1.834,5.857,6.211
	c1.147,5.712,0.719,11.49,0.846,17.248c0.03,1.312-0.279,2.153-1.871,2.118c-3.276-0.072-6.56-0.056-9.84-0.008
	c-1.453,0.02-2.004-0.548-1.955-2.019C575.425,67.579,575.36,64.975,575.36,63.305z"/>
<text transform="matrix(1 0 0 1 249.7534 152.2441)" font-family="'Avenir-Heavy'" font-size="33.0347" letter-spacing="-1">Thumbnail Downloader</text>
</svg>
